<?xml version="1.0" encoding="UTF-8"?>
<svg width="747px" height="755px" viewBox="0 0 747 755" version="1.1" xmlns="http://www.w3.org/2000/svg" xmlns:xlink="http://www.w3.org/1999/xlink">
    <title>logo-dark</title>
    <g id="logo-dark" stroke="none" fill="none" fill-rule="evenodd" stroke-width="1">
        <g id="logo">
            <path d="M708.999999,306.9992 L708.999999,665 C708.999999,714.705628 668.705627,755 618.999999,755 L138.999999,755 C89.2943718,755 48.9999992,714.705628 48.9999992,665 L48.9999992,306.9992 L85.6055581,306.9992 C85.2498651,309.314614 85.0469589,311.678526 85.0072337,314.08134 L84.9999992,314.957082 L84.9999992,666.042919 C84.9999992,694.997833 108.695508,718.525253 138.107011,718.992906 L138.999999,719 L618.999999,719 C648.525142,719 672.515902,695.76213 672.992765,666.918661 L672.999999,666.042919 L672.999999,314.957082 C672.999999,312.252303 672.793231,309.594885 672.394349,306.9992 L708.999999,306.9992 L708.999999,306.9992 Z" id="Combined-Shape" fill="#000000" fill-rule="nonzero"></path>
            <g id="Bottom-Sticks" transform="translate(19, 181)" fill-rule="nonzero">
                <rect id="Main-Shape" stroke="#000000" stroke-width="22" fill-opacity="0" fill="#FFFFFF" x="4" y="11" width="713" height="118" rx="30"></rect>
                <polygon id="Slash-04" fill="#000000" points="692.626953 3.06445313 717 18.46875 709.910156 129 582 140"></polygon>
                <polygon id="Slash-03" fill="#000000" points="466.810526 0 581 0 466.810526 140 355 140"></polygon>
                <polygon id="Slash-02" fill="#000000" points="240.810526 0 355 0 240.810526 140 129 140"></polygon>
                <polygon id="Slash-01" fill="#000000" points="14.0672854 9.22130131 129 0 17.2754495 136 0 94.7913704"></polygon>
            </g>
            <g id="Top-Sticks" transform="translate(358.6501, -205.4629) scale(-1, 1) rotate(-175) translate(-358.6501, 205.4629)translate(-14.8499, -582.9629)" fill-rule="nonzero">
                <rect id="Main-Shape" stroke="#000000" stroke-width="22" fill-opacity="0" fill="#FFFFFF" x="4" y="11" width="713" height="118" rx="30"></rect>
                <polygon id="Slash-04" fill="#000000" points="691.305168 2.94451352 717.505858 16.781988 708.807417 129.716758 582 140"></polygon>
                <polygon id="Slash-03" fill="#000000" points="466.810526 -2.02669299e-14 581 -2.02669299e-14 466.810526 140 355 140"></polygon>
                <polygon id="Slash-02" fill="#000000" points="240.810526 1.41239838e-12 355 1.41239838e-12 240.810526 140 129 140"></polygon>
                <polygon id="Slash-01" fill="#000000" points="14.0672854 9.22130131 129 1.47603462e-12 17.2754495 136 -2.60888525e-14 94.7913704"></polygon>
            </g>
            <path d="M527.872191,376.788744 C524.366013,371.685187 517.495775,370.471108 512.519845,374.067216 L391.455061,461.663532 C387.706023,459.698496 383.478461,458.574828 378.986451,458.574828 C376.905951,458.574828 374.891113,458.834987 372.941937,459.28058 L286.281413,383.647919 C281.651783,379.599761 274.710486,380.175433 270.758165,384.929344 L263.629776,393.521993 C259.682852,398.270369 260.244128,405.395238 264.873758,409.443396 L351.545076,485.092663 C351.511796,485.662801 351.462324,486.227402 351.462324,486.803075 C351.462324,501.086948 361.872021,512.903917 375.320166,514.749944 L375.320166,675 L382.663531,675 L382.663531,514.746254 C396.106279,512.894692 406.515076,501.083258 406.515076,486.799385 C406.515076,485.574236 406.410736,484.377686 406.261422,483.191284 L527.332502,395.594968 C532.303036,391.99886 533.49215,384.952407 529.985972,379.854385 L527.872191,376.788744 Z" id="Clockface" stroke="#FFFFFF" stroke-width="2" fill="#000000" fill-rule="nonzero"></path>
        </g>
    </g>
</svg>
