<?xml version="1.0" encoding="UTF-8"?>
<svg width="747px" height="755px" viewBox="0 0 747 755" version="1.1" xmlns="http://www.w3.org/2000/svg" xmlns:xlink="http://www.w3.org/1999/xlink">
    <title>logo</title>
    <g id="Page-1" stroke="none" stroke-width="1" fill="none" fill-rule="evenodd">
        <g id="logo" transform="translate(7.270909, 1.151260)" fill="#FFFFFF" fill-rule="nonzero">
            <path d="M701.72909,305.84794 L701.72909,663.84874 C701.72909,713.554368 661.434718,753.84874 611.72909,753.84874 L131.72909,753.84874 C82.0234628,753.84874 41.7290902,713.554368 41.7290902,663.84874 L41.7290902,305.84794 L78.3346491,305.84794 C77.9789561,308.163354 77.7760499,310.527266 77.7363247,312.93008 L77.7290902,313.805822 L77.7290902,664.891659 C77.7290902,693.846573 101.424599,717.373993 130.836102,717.841646 L131.72909,717.84874 L611.72909,717.84874 C641.254233,717.84874 665.244993,694.61087 665.721856,665.767401 L665.72909,664.891659 L665.72909,313.805822 C665.72909,311.101043 665.522322,308.443625 665.12344,305.84794 L701.72909,305.84794 L701.72909,305.84794 Z" id="Combined-Shape"></path>
            <g id="Bottom-Sticks" transform="translate(11.729091, 179.848740)">
                <rect id="Main-Shape" stroke="#FFFFFF" stroke-width="22" fill-opacity="0" x="4" y="11" width="713" height="118" rx="30"></rect>
                <polygon id="Slash-04" points="692.626953 3.06445313 717 18.46875 709.910156 129 582 140"></polygon>
                <polygon id="Slash-03" points="466.810526 0 581 0 466.810526 140 355 140"></polygon>
                <polygon id="Slash-02" points="240.810526 0 355 0 240.810526 140 129 140"></polygon>
                <polygon id="Slash-01" points="14.0672854 9.22130131 129 0 17.2754495 136 0 94.7913704"></polygon>
            </g>
            <g id="Top-Sticks" transform="translate(363.488668, 101.001007) scale(-1, 1) rotate(-175.000000) translate(-363.488668, -101.001007) translate(4.735739, 31.001007)">
                <rect id="Main-Shape" stroke="#FFFFFF" stroke-width="22" fill-opacity="0" x="4" y="11" width="713" height="118" rx="30"></rect>
                <polygon id="Slash-04" points="691.305168 2.94451352 717.505858 16.781988 708.807417 129.716758 582 140"></polygon>
                <polygon id="Slash-03" points="466.810526 -2.02669299e-14 581 -2.02669299e-14 466.810526 140 355 140"></polygon>
                <polygon id="Slash-02" points="240.810526 1.41239838e-12 355 1.41239838e-12 240.810526 140 129 140"></polygon>
                <polygon id="Slash-01" points="14.0672854 9.22130131 129 1.47603462e-12 17.2754495 136 -2.60888525e-14 94.7913704"></polygon>
            </g>
            <path d="M520.601282,375.637484 C517.095104,370.533927 510.224866,369.319848 505.248936,372.915956 L384.184152,460.512272 C380.435114,458.547236 376.207552,457.423568 371.715542,457.423568 C369.635042,457.423568 367.620204,457.683727 365.671028,458.12932 L279.010504,382.496659 C274.380874,378.448501 267.439577,379.024173 263.487256,383.778084 L256.358867,392.370733 C252.411943,397.119109 252.973219,404.243978 257.602849,408.292136 L344.274167,483.941403 C344.240887,484.511541 344.191415,485.076142 344.191415,485.651815 C344.191415,499.935688 354.601112,511.752657 368.049257,513.598684 L368.049257,673.84874 L375.392622,673.84874 L375.392622,513.594994 C388.83537,511.743432 399.244167,499.931998 399.244167,485.648125 C399.244167,484.422976 399.139827,483.226426 398.990513,482.040024 L520.061593,394.443708 C525.032127,390.8476 526.221241,383.801147 522.715063,378.703125 L520.601282,375.637484 Z" id="Clockface" stroke="#FFFFFF" stroke-width="2"></path>
        </g>
    </g>
</svg>
